<?xml version="1.0" encoding="UTF-8"?>
<!DOCTYPE svg PUBLIC "-//W3C//DTD SVG 1.1//EN" "http://www.w3.org/Graphics/SVG/1.1/DTD/svg11.dtd">
<svg xmlns="http://www.w3.org/2000/svg" version="1.1" width="200px" height="200px" style="shape-rendering:geometricPrecision; text-rendering:geometricPrecision; image-rendering:optimizeQuality; fill-rule:evenodd; clip-rule:evenodd" xmlns:xlink="http://www.w3.org/1999/xlink">
<g><path style="opacity:1" fill="#fdfdfd" d="M -0.5,-0.5 C 66.1667,-0.5 132.833,-0.5 199.5,-0.5C 199.5,66.1667 199.5,132.833 199.5,199.5C 132.833,199.5 66.1667,199.5 -0.5,199.5C -0.5,132.833 -0.5,66.1667 -0.5,-0.5 Z"/></g>
<g><path style="opacity:1" fill="#0d0d0d" d="M 142.5,49.5 C 144.515,50.9238 146.848,51.5905 149.5,51.5C 154.523,53.3505 159.523,55.5171 164.5,58C 168.927,61.6259 173.427,65.1259 178,68.5C 182.149,66.7172 182.483,64.3839 179,61.5C 178.661,57.5126 180.494,56.0126 184.5,57C 188.794,61.7674 192.461,66.934 195.5,72.5C 195.183,75.6551 193.517,76.8218 190.5,76C 188.138,70.4344 185.805,70.2677 183.5,75.5C 191.058,88.0663 194.391,101.733 193.5,116.5C 192.284,122.5 190.617,128.5 188.5,134.5C 179.488,153.831 164.488,165.831 143.5,170.5C 136.869,171.331 130.202,171.664 123.5,171.5C 122.041,171.567 120.708,171.234 119.5,170.5C 117.485,169.076 115.152,168.41 112.5,168.5C 105.104,165.968 98.4378,162.135 92.5,157C 79.1667,156.667 65.8333,156.333 52.5,156C 50.5561,153.847 50.0561,151.347 51,148.5C 65.7587,147.343 80.5921,147.177 95.5,148C 101.172,153.666 107.839,157.5 115.5,159.5C 117.026,161.13 119.026,161.963 121.5,162C 128.346,162.821 135.013,162.654 141.5,161.5C 172.109,153.317 186.276,133.317 184,101.5C 177.151,74.1501 159.651,59.8168 131.5,58.5C 117.221,57.8926 105.221,62.726 95.5,73C 81.1667,73.6667 66.8333,73.6667 52.5,73C 50.3199,70.5823 49.9865,67.9156 51.5,65C 65.1788,64.8327 78.8455,64.3327 92.5,63.5C 100.456,56.1887 109.789,51.5221 120.5,49.5C 122.833,49.5 125.167,49.5 127.5,49.5C 127.817,45.2984 127.483,41.2984 126.5,37.5C 119.507,39.0041 116.673,36.3375 118,29.5C 127.333,28.1667 136.667,28.1667 146,29.5C 147.489,36.3943 144.655,39.061 137.5,37.5C 137.5,41.5 137.5,45.5 137.5,49.5C 139.167,49.5 140.833,49.5 142.5,49.5 Z"/></g>
<g><path style="opacity:1" fill="#a7a7a7" d="M 126.5,37.5 C 127.483,41.2984 127.817,45.2984 127.5,49.5C 125.167,49.5 122.833,49.5 120.5,49.5C 122.265,48.5386 124.265,48.2053 126.5,48.5C 126.5,44.8333 126.5,41.1667 126.5,37.5 Z"/></g>
<g><path style="opacity:1" fill="#969696" d="M 142.5,49.5 C 145.152,49.4095 147.485,50.0762 149.5,51.5C 146.848,51.5905 144.515,50.9238 142.5,49.5 Z"/></g>
<g><path style="opacity:1" fill="#8e8e8e" d="M 85.5,86.5 C 67.2942,85.187 48.9609,85.187 30.5,86.5C 30.6107,85.8826 30.944,85.3826 31.5,85C 49.8424,84.167 68.1758,84.3337 86.5,85.5C 86.3764,86.1067 86.0431,86.44 85.5,86.5 Z"/></g>
<g><path style="opacity:1" fill="#0a0a0a" d="M 85.5,86.5 C 84.3263,87.5137 83.6596,88.847 83.5,90.5C 81.7234,93.5046 80.7234,96.8379 80.5,100.5C 78.4468,111.478 79.7801,122.144 84.5,132.5C 67.1983,134.486 49.5316,135.153 31.5,134.5C 30.0532,133.866 29.3866,132.699 29.5,131C 29.528,129.93 29.8614,129.097 30.5,128.5C 44.6284,127.866 58.6284,127.2 72.5,126.5C 72.7845,124.585 72.4511,122.919 71.5,121.5C 71.5,120.5 71.5,119.5 71.5,118.5C 71.5,117.167 71.5,115.833 71.5,114.5C 49.5,114.5 27.5,114.5 5.5,114.5C 1.55028,111.613 1.55028,108.779 5.5,106C 27.1641,105.5 48.8308,105.333 70.5,105.5C 71.5808,102.373 72.2474,99.0399 72.5,95.5C 58.994,94.8333 45.3274,94.1667 31.5,93.5C 29.447,91.2712 29.1137,88.9379 30.5,86.5C 48.9609,85.187 67.2942,85.187 85.5,86.5 Z"/></g>
<g><path style="opacity:1" fill="#0c0c0c" d="M 155.5,87.5 C 161.674,86.1729 163.841,88.5062 162,94.5C 150.636,104.86 139.469,115.693 128.5,127C 126.765,127.651 125.098,127.485 123.5,126.5C 116.484,119.65 109.317,112.983 102,106.5C 100.167,100.333 102.333,98.1667 108.5,100C 114.031,105.866 119.865,111.366 126,116.5C 136.277,107.275 146.11,97.6083 155.5,87.5 Z"/></g>
<g><path style="opacity:1" fill="#939393" d="M 83.5,90.5 C 83.2766,94.1621 82.2766,97.4954 80.5,100.5C 80.7234,96.8379 81.7234,93.5046 83.5,90.5 Z"/></g>
<g><path style="opacity:1" fill="#999999" d="M 72.5,95.5 C 72.2474,99.0399 71.5808,102.373 70.5,105.5C 70.1588,101.84 70.8255,98.5072 72.5,95.5 Z"/></g>
<g><path style="opacity:1" fill="#959595" d="M 5.5,114.5 C 27.5,114.5 49.5,114.5 71.5,114.5C 71.5,115.833 71.5,117.167 71.5,118.5C 70.596,117.791 70.2627,116.791 70.5,115.5C 48.6602,115.831 26.9936,115.497 5.5,114.5 Z"/></g>
<g><path style="opacity:1" fill="#ababab" d="M 193.5,116.5 C 193.822,123.183 192.155,129.183 188.5,134.5C 190.617,128.5 192.284,122.5 193.5,116.5 Z"/></g>
<g><path style="opacity:1" fill="#c6c6c6" d="M 71.5,121.5 C 72.4511,122.919 72.7845,124.585 72.5,126.5C 59.1667,126.5 45.8333,126.5 32.5,126.5C 45.3226,125.505 58.3226,125.171 71.5,125.5C 71.5,124.167 71.5,122.833 71.5,121.5 Z"/></g>
<g><path style="opacity:1" fill="#2a2a2a" d="M 32.5,126.5 C 45.8333,126.5 59.1667,126.5 72.5,126.5C 58.6284,127.2 44.6284,127.866 30.5,128.5C 30.8333,127.5 31.5,126.833 32.5,126.5 Z"/></g>
<g><path style="opacity:1" fill="#353535" d="M 84.5,132.5 C 85.1667,132.5 85.5,132.833 85.5,133.5C 68.1983,135.486 50.5316,136.153 32.5,135.5C 31.8333,135.5 31.5,135.167 31.5,134.5C 49.5316,135.153 67.1983,134.486 84.5,132.5 Z"/></g>
<g><path style="opacity:1" fill="#c4c4c4" d="M 85.5,133.5 C 86.404,134.209 86.7373,135.209 86.5,136.5C 68.3256,136.83 50.3256,136.497 32.5,135.5C 50.5316,136.153 68.1983,135.486 85.5,133.5 Z"/></g>
<g><path style="opacity:1" fill="#b8b8b8" d="M 115.5,159.5 C 124.051,161.249 132.718,161.916 141.5,161.5C 135.013,162.654 128.346,162.821 121.5,162C 119.026,161.963 117.026,161.13 115.5,159.5 Z"/></g>
<g><path style="opacity:1" fill="#616161" d="M 112.5,168.5 C 115.152,168.41 117.485,169.076 119.5,170.5C 116.848,170.59 114.515,169.924 112.5,168.5 Z"/></g>
<g><path style="opacity:1" fill="#b8b8b8" d="M 143.5,170.5 C 143.082,171.222 142.416,171.722 141.5,172C 135.319,172.819 129.319,172.653 123.5,171.5C 130.202,171.664 136.869,171.331 143.5,170.5 Z"/></g>
</svg>
