<?xml version="1.0" encoding="UTF-8"?>
<!DOCTYPE svg PUBLIC "-//W3C//DTD SVG 1.1//EN" "http://www.w3.org/Graphics/SVG/1.1/DTD/svg11.dtd">
<svg xmlns="http://www.w3.org/2000/svg" version="1.1" width="147px" height="37px" style="shape-rendering:geometricPrecision; text-rendering:geometricPrecision; image-rendering:optimizeQuality; fill-rule:evenodd; clip-rule:evenodd" xmlns:xlink="http://www.w3.org/1999/xlink">
<g><path style="opacity:0.886" fill="#353535" d="M 109.5,-0.5 C 110.5,-0.5 111.5,-0.5 112.5,-0.5C 114.113,0.838136 114.613,2.5048 114,4.5C 110.167,8.33333 106.333,12.1667 102.5,16C 106.714,20.5455 110.547,25.3788 114,30.5C 114.514,34.6197 112.68,36.1197 108.5,35C 104.644,30.6451 100.977,26.1451 97.5,21.5C 95.7419,22.1279 94.2419,23.1279 93,24.5C 92.5014,28.1516 92.3347,31.8183 92.5,35.5C 89.9208,35.9167 87.7542,35.25 86,33.5C 85.3333,23.1667 85.3333,12.8333 86,2.5C 87.7542,0.749986 89.9208,0.0833195 92.5,0.5C 92.3341,5.51108 92.5007,10.5111 93,15.5C 99.0035,10.6628 104.503,5.32951 109.5,-0.5 Z"/></g>
<g><path style="opacity:0.962" fill="#008de0" d="M 14.5,-0.5 C 16.5,-0.5 18.5,-0.5 20.5,-0.5C 22.6674,0.268525 24.834,1.26852 27,2.5C 27.9809,5.5572 26.9809,7.5572 24,8.5C 13.7791,4.28838 7.94574,7.62172 6.5,18.5C 6.4458,22.5578 8.11247,25.7244 11.5,28C 16.6474,29.2002 21.8141,29.7002 27,29.5C 27.6667,30.8333 27.6667,32.1667 27,33.5C 25.1239,34.6087 23.2905,35.6087 21.5,36.5C 18.8333,36.5 16.1667,36.5 13.5,36.5C 6.81782,34.8291 2.15116,30.8291 -0.5,24.5C -0.5,20.1667 -0.5,15.8333 -0.5,11.5C 2.74834,5.2459 7.74834,1.2459 14.5,-0.5 Z"/></g>
<g><path style="opacity:0.962" fill="#008de0" d="M 32.5,-0.5 C 33.1667,-0.5 33.8333,-0.5 34.5,-0.5C 38.8335,7.50661 42.6668,15.8399 46,24.5C 49.1858,15.7337 53.0191,7.4004 57.5,-0.5C 57.8333,-0.5 58.1667,-0.5 58.5,-0.5C 61.9792,1.78957 62.4792,4.78957 60,8.5C 56.2638,17.2083 52.4305,25.8749 48.5,34.5C 46.6471,35.7596 44.8138,35.7596 43,34.5C 38.5,24.1667 34,13.8333 29.5,3.5C 30.1716,1.8405 31.1716,0.507165 32.5,-0.5 Z"/></g>
<g><path style="opacity:0.856" fill="#353535" d="M 146.5,1.5 C 146.5,9.83333 146.5,18.1667 146.5,26.5C 144.083,31.2517 140.417,34.5851 135.5,36.5C 133.5,36.5 131.5,36.5 129.5,36.5C 124.552,35.2644 121.052,32.2644 119,27.5C 117.463,19.2303 117.13,10.897 118,2.5C 119.67,0.301654 121.67,-0.031679 124,1.5C 124.333,8.5 124.667,15.5 125,22.5C 128.262,30.3165 132.929,31.3165 139,25.5C 139.333,17.8333 139.667,10.1667 140,2.5C 141.825,0.176183 143.991,-0.15715 146.5,1.5 Z"/></g>
<g><path style="opacity:0.798" fill="#353535" d="M 66.5,16.5 C 70.5138,16.3345 74.5138,16.5012 78.5,17C 80.3249,18.4659 80.8249,20.2992 80,22.5C 75.5868,23.6324 71.0868,23.7991 66.5,23C 63.9387,20.8441 63.9387,18.6774 66.5,16.5 Z"/></g>
</svg>
