<?xml version="1.0" encoding="UTF-8"?>
<!DOCTYPE svg PUBLIC "-//W3C//DTD SVG 1.1//EN" "http://www.w3.org/Graphics/SVG/1.1/DTD/svg11.dtd">
<svg xmlns="http://www.w3.org/2000/svg" version="1.1" width="200px" height="200px" style="shape-rendering:geometricPrecision; text-rendering:geometricPrecision; image-rendering:optimizeQuality; fill-rule:evenodd; clip-rule:evenodd" xmlns:xlink="http://www.w3.org/1999/xlink">
<g><path style="opacity:1" fill="#fdfdfd" d="M -0.5,-0.5 C 66.1667,-0.5 132.833,-0.5 199.5,-0.5C 199.5,47.8333 199.5,96.1667 199.5,144.5C 195.71,143.105 192.043,141.438 188.5,139.5C 185.038,138.518 181.371,138.185 177.5,138.5C 168.61,134.452 159.61,130.619 150.5,127C 141.4,124.777 132.4,125.11 123.5,128C 117.964,129.943 112.631,132.11 107.5,134.5C 99.6132,136.453 92.2798,139.453 85.5,143.5C 82.6296,144.528 80.6296,146.528 79.5,149.5C 78.0416,150.782 76.7082,150.782 75.5,149.5C 73.4855,148.076 71.1522,147.41 68.5,147.5C 68.1667,147.5 67.8333,147.5 67.5,147.5C 65.8984,145.926 63.8984,145.259 61.5,145.5C 59.5853,145.784 57.9187,145.451 56.5,144.5C 54.8984,142.926 52.8984,142.259 50.5,142.5C 50.1667,142.5 49.8333,142.5 49.5,142.5C 47.8984,140.926 45.8984,140.259 43.5,140.5C 38.9882,139.954 34.6549,138.954 30.5,137.5C 28.8984,135.926 26.8984,135.259 24.5,135.5C 18.9632,133.709 13.2965,133.209 7.5,134C -0.379317,141.184 -0.379317,148.517 7.5,156C 31.6761,167.588 55.6761,179.422 79.5,191.5C 81.1016,193.074 83.1016,193.741 85.5,193.5C 87.9779,194.164 90.6445,194.497 93.5,194.5C 98.6171,194.536 103.617,193.869 108.5,192.5C 113.744,191.456 118.744,189.789 123.5,187.5C 123.833,187.5 124.167,187.5 124.5,187.5C 128.767,186.744 132.767,185.411 136.5,183.5C 137.568,182.566 138.901,182.232 140.5,182.5C 146.833,181.167 153.167,181.167 159.5,182.5C 159.263,183.791 159.596,184.791 160.5,185.5C 163.088,190.137 167.088,192.804 172.5,193.5C 172.973,194.906 173.973,195.573 175.5,195.5C 175.833,195.5 176.167,195.5 176.5,195.5C 177.449,196.152 178.615,196.486 180,196.5C 182.008,196.693 183.508,196.026 184.5,194.5C 189.028,184.11 194.028,174.11 199.5,164.5C 199.5,176.167 199.5,187.833 199.5,199.5C 132.833,199.5 66.1667,199.5 -0.5,199.5C -0.5,132.833 -0.5,66.1667 -0.5,-0.5 Z"/></g>
<g><path style="opacity:1" fill="#101010" d="M 147.5,36.5 C 147.69,39.855 148.69,42.855 150.5,45.5C 150.259,47.8984 150.926,49.8984 152.5,51.5C 155.41,78.8471 145.077,99.6804 121.5,114C 97.878,124.924 76.2114,122.09 56.5,105.5C 54.8333,103.167 52.8333,101.167 50.5,99.5C 39.4824,85.7713 35.1491,70.1047 37.5,52.5C 39.3699,49.1912 40.3699,45.5246 40.5,41.5C 45.2634,28.0731 53.93,18.0731 66.5,11.5C 68.8477,11.4077 70.5144,10.4077 71.5,8.5C 76.1646,7.9431 80.4979,6.60976 84.5,4.5C 112.333,1.58354 133.333,12.2502 147.5,36.5 Z"/></g>
<g><path style="opacity:1" fill="#595959" d="M 84.5,4.5 C 80.4979,6.60976 76.1646,7.9431 71.5,8.5C 75.5021,6.39024 79.8354,5.0569 84.5,4.5 Z"/></g>
<g><path style="opacity:1" fill="#585858" d="M 71.5,8.5 C 70.5144,10.4077 68.8477,11.4077 66.5,11.5C 67.6594,9.74973 69.326,8.74973 71.5,8.5 Z"/></g>
<g><path style="opacity:1" fill="#909090" d="M 101.5,12.5 C 94.7978,12.3357 88.1311,12.669 81.5,13.5C 85.034,11.9524 88.8673,11.2857 93,11.5C 96.0208,11.5022 98.8541,11.8356 101.5,12.5 Z"/></g>
<g><path style="opacity:1" fill="#f7f7f7" d="M 101.5,12.5 C 104.237,12.4013 106.904,12.7347 109.5,13.5C 111.509,15.0652 113.843,16.0652 116.5,16.5C 121.635,19.2491 126.302,22.7491 130.5,27C 127.256,30.7501 123.589,33.9168 119.5,36.5C 118.167,35.5 116.833,34.5 115.5,33.5C 110.704,30.2978 105.371,28.6312 99.5,28.5C 99.5,26.1667 99.5,23.8333 99.5,21.5C 96.5,21.5 93.5,21.5 90.5,21.5C 90.5,23.5 90.5,25.5 90.5,27.5C 79.9567,26.7597 72.6233,31.0931 68.5,40.5C 67.3516,44.9811 67.1849,49.6478 68,54.5C 68.3826,55.056 68.8826,55.3893 69.5,55.5C 71.8018,60.8061 75.8018,63.8061 81.5,64.5C 82.9002,65.1001 83.9002,66.1001 84.5,67.5C 75.1983,75.9625 65.6983,84.2959 56,92.5C 50.1465,86.2985 46.4798,78.9651 45,70.5C 42.186,46.7943 51.0193,29.1276 71.5,17.5C 75.1488,16.7333 78.4822,15.3999 81.5,13.5C 88.1311,12.669 94.7978,12.3357 101.5,12.5 Z"/></g>
<g><path style="opacity:1" fill="#4e4e4e" d="M 109.5,13.5 C 112.491,13.1663 114.824,14.1663 116.5,16.5C 113.843,16.0652 111.509,15.0652 109.5,13.5 Z"/></g>
<g><path style="opacity:1" fill="#989898" d="M 81.5,13.5 C 78.4822,15.3999 75.1488,16.7333 71.5,17.5C 74.309,15.1034 77.6424,13.7701 81.5,13.5 Z"/></g>
<g><path style="opacity:1" fill="#0c0c0c" d="M 115.5,33.5 C 115.804,34.1499 116.137,34.8165 116.5,35.5C 113.833,37.8333 111.167,40.1667 108.5,42.5C 106.6,40.3841 104.267,39.0507 101.5,38.5C 100.791,37.596 99.791,37.2627 98.5,37.5C 98.5,42.1667 98.5,46.8333 98.5,51.5C 93.6767,55.4246 89.0101,59.5913 84.5,64C 83.552,64.4828 82.552,64.6495 81.5,64.5C 75.8018,63.8061 71.8018,60.8061 69.5,55.5C 68.6076,50.5624 68.2743,45.5624 68.5,40.5C 72.6233,31.0931 79.9567,26.7597 90.5,27.5C 90.5,25.5 90.5,23.5 90.5,21.5C 93.5,21.5 96.5,21.5 99.5,21.5C 99.5,23.8333 99.5,26.1667 99.5,28.5C 105.371,28.6312 110.704,30.2978 115.5,33.5 Z"/></g>
<g><path style="opacity:1" fill="#f5f5f5" d="M 142.5,44.5 C 142.41,47.1522 143.076,49.4855 144.5,51.5C 147.417,82.7718 133.75,102.938 103.5,112C 87.8925,114.5 74.2259,110.666 62.5,100.5C 63.075,98.5887 64.075,96.922 65.5,95.5C 76.844,84.8239 88.5107,74.4905 100.5,64.5C 101.496,64.5858 102.329,64.2524 103,63.5C 103.464,64.0944 103.631,64.7611 103.5,65.5C 105.268,67.1963 107.435,68.5296 110,69.5C 113.428,79.2489 109.928,84.2489 99.5,84.5C 99.8266,79.7863 99.4933,75.1196 98.5,70.5C 97.8933,70.6236 97.56,70.9569 97.5,71.5C 95.4535,73.2789 93.2869,74.9456 91,76.5C 90.5026,79.146 90.3359,81.8127 90.5,84.5C 87.786,84.25 85.1194,84.0833 82.5,84C 80.6116,86.1896 78.4449,88.0229 76,89.5C 75.5304,90.5768 75.6971,91.5768 76.5,92.5C 78.1016,94.0739 80.1016,94.7406 82.5,94.5C 85.1667,94.5 87.8333,94.5 90.5,94.5C 88.4946,102.5 91.1612,105.166 98.5,102.5C 100.28,101.01 100.946,99.0101 100.5,96.5C 103.067,96.2785 105.401,95.6118 107.5,94.5C 110.716,94.6545 113.383,93.6545 115.5,91.5C 122.202,84.349 124.035,76.0157 121,66.5C 119.334,64.0043 117.5,61.671 115.5,59.5C 113.708,58.6909 111.708,58.1909 109.5,58C 111.373,56.2962 113.04,54.4628 114.5,52.5C 121.188,45.6471 128.354,39.3138 136,33.5C 139.185,36.5335 141.352,40.2002 142.5,44.5 Z"/></g>
<g><path style="opacity:1" fill="#f7f7f7" d="M 85.5,38.5 C 87.1667,38.5 88.8333,38.5 90.5,38.5C 90.5,43.8333 90.5,49.1667 90.5,54.5C 87.4824,54.2962 84.4824,53.9629 81.5,53.5C 79.494,49.8015 78.994,45.8015 80,41.5C 81.4877,39.84 83.321,38.84 85.5,38.5 Z"/></g>
<g><path style="opacity:1" fill="#616161" d="M 85.5,38.5 C 87.2646,37.5386 89.2646,37.2053 91.5,37.5C 91.5,43.5 91.5,49.5 91.5,55.5C 88.8127,55.6641 86.146,55.4974 83.5,55C 82.5842,54.7216 81.9175,54.2216 81.5,53.5C 84.4824,53.9629 87.4824,54.2962 90.5,54.5C 90.5,49.1667 90.5,43.8333 90.5,38.5C 88.8333,38.5 87.1667,38.5 85.5,38.5 Z"/></g>
<g><path style="opacity:1" fill="#6a6a6a" d="M 101.5,38.5 C 99.8651,42.573 98.8651,46.9063 98.5,51.5C 98.5,46.8333 98.5,42.1667 98.5,37.5C 99.791,37.2627 100.791,37.596 101.5,38.5 Z"/></g>
<g><path style="opacity:1" fill="#e9e9e9" d="M 115.5,33.5 C 116.833,34.5 118.167,35.5 119.5,36.5C 108.156,47.1761 96.4893,57.5095 84.5,67.5C 83.9002,66.1001 82.9002,65.1001 81.5,64.5C 82.552,64.6495 83.552,64.4828 84.5,64C 89.0101,59.5913 93.6767,55.4246 98.5,51.5C 98.8651,46.9063 99.8651,42.573 101.5,38.5C 104.267,39.0507 106.6,40.3841 108.5,42.5C 111.167,40.1667 113.833,37.8333 116.5,35.5C 116.137,34.8165 115.804,34.1499 115.5,33.5 Z"/></g>
<g><path style="opacity:1" fill="#585858" d="M 147.5,36.5 C 149.472,39.0836 150.472,42.0836 150.5,45.5C 148.69,42.855 147.69,39.855 147.5,36.5 Z"/></g>
<g><path style="opacity:1" fill="#aaaaaa" d="M 68.5,40.5 C 68.2743,45.5624 68.6076,50.5624 69.5,55.5C 68.8826,55.3893 68.3826,55.056 68,54.5C 67.1849,49.6478 67.3516,44.9811 68.5,40.5 Z"/></g>
<g><path style="opacity:1" fill="#3c3c3c" d="M 40.5,41.5 C 40.3699,45.5246 39.3699,49.1912 37.5,52.5C 37.7424,48.521 38.7424,44.8544 40.5,41.5 Z"/></g>
<g><path style="opacity:1" fill="#787878" d="M 142.5,44.5 C 143.924,46.5145 144.59,48.8478 144.5,51.5C 143.076,49.4855 142.41,47.1522 142.5,44.5 Z"/></g>
<g><path style="opacity:1" fill="#676767" d="M 150.5,45.5 C 152.074,47.1016 152.741,49.1016 152.5,51.5C 150.926,49.8984 150.259,47.8984 150.5,45.5 Z"/></g>
<g><path style="opacity:1" fill="#c8c8c8" d="M 114.5,52.5 C 113.04,54.4628 111.373,56.2962 109.5,58C 111.708,58.1909 113.708,58.6909 115.5,59.5C 110.737,59.8815 106.737,61.8815 103.5,65.5C 103.631,64.7611 103.464,64.0944 103,63.5C 102.329,64.2524 101.496,64.5858 100.5,64.5C 104.867,60.1322 109.533,56.1322 114.5,52.5 Z"/></g>
<g><path style="opacity:1" fill="#0b0b0b" d="M 115.5,59.5 C 117.5,61.671 119.334,64.0043 121,66.5C 124.035,76.0157 122.202,84.349 115.5,91.5C 112.603,92.129 109.936,93.129 107.5,94.5C 104.813,94.3359 102.146,94.5026 99.5,95C 98.565,97.3806 98.2317,99.8806 98.5,102.5C 91.1612,105.166 88.4946,102.5 90.5,94.5C 87.8333,94.5 85.1667,94.5 82.5,94.5C 80.8984,92.9261 78.8984,92.2594 76.5,92.5C 75.6971,91.5768 75.5304,90.5768 76,89.5C 78.4449,88.0229 80.6116,86.1896 82.5,84C 85.1194,84.0833 87.786,84.25 90.5,84.5C 90.3359,81.8127 90.5026,79.146 91,76.5C 93.2869,74.9456 95.4535,73.2789 97.5,71.5C 98.1667,75.8333 98.8333,80.1667 99.5,84.5C 109.928,84.2489 113.428,79.2489 110,69.5C 107.435,68.5296 105.268,67.1963 103.5,65.5C 106.737,61.8815 110.737,59.8815 115.5,59.5 Z"/></g>
<g><path style="opacity:1" fill="#6e6e6e" d="M 97.5,71.5 C 97.56,70.9569 97.8933,70.6236 98.5,70.5C 99.4933,75.1196 99.8266,79.7863 99.5,84.5C 98.8333,80.1667 98.1667,75.8333 97.5,71.5 Z"/></g>
<g><path style="opacity:1" fill="#767676" d="M 76.5,92.5 C 78.8984,92.2594 80.8984,92.9261 82.5,94.5C 80.1016,94.7406 78.1016,94.0739 76.5,92.5 Z"/></g>
<g><path style="opacity:1" fill="#9d9d9d" d="M 115.5,91.5 C 113.383,93.6545 110.716,94.6545 107.5,94.5C 109.936,93.129 112.603,92.129 115.5,91.5 Z"/></g>
<g><path style="opacity:1" fill="#a1a1a1" d="M 65.5,95.5 C 64.075,96.922 63.075,98.5887 62.5,100.5C 61.1789,97.7647 62.1789,96.0981 65.5,95.5 Z"/></g>
<g><path style="opacity:1" fill="#b7b7b7" d="M 107.5,94.5 C 105.401,95.6118 103.067,96.2785 100.5,96.5C 100.946,99.0101 100.28,101.01 98.5,102.5C 98.2317,99.8806 98.565,97.3806 99.5,95C 102.146,94.5026 104.813,94.3359 107.5,94.5 Z"/></g>
<g><path style="opacity:1" fill="#989898" d="M 50.5,99.5 C 52.8333,101.167 54.8333,103.167 56.5,105.5C 53.5,104.5 51.5,102.5 50.5,99.5 Z"/></g>
<g><path style="opacity:1" fill="#0f0f0f" d="M 177.5,138.5 C 178.374,139.525 179.541,140.192 181,140.5C 183.434,139.678 185.934,139.344 188.5,139.5C 192.043,141.438 195.71,143.105 199.5,144.5C 199.5,151.167 199.5,157.833 199.5,164.5C 194.028,174.11 189.028,184.11 184.5,194.5C 181.904,195.265 179.237,195.599 176.5,195.5C 176.167,195.5 175.833,195.5 175.5,195.5C 175.027,194.094 174.027,193.427 172.5,193.5C 167.088,192.804 163.088,190.137 160.5,185.5C 160.773,183.549 160.107,182.049 158.5,181C 153.167,180.333 147.833,180.333 142.5,181C 141.584,181.278 140.918,181.778 140.5,182.5C 138.901,182.232 137.568,182.566 136.5,183.5C 132.085,183.861 128.085,185.194 124.5,187.5C 124.167,187.5 123.833,187.5 123.5,187.5C 118.081,188.302 113.081,189.968 108.5,192.5C 103.617,193.869 98.6171,194.536 93.5,194.5C 90.6445,194.497 87.9779,194.164 85.5,193.5C 83.8984,191.926 81.8984,191.259 79.5,191.5C 55.6761,179.422 31.6761,167.588 7.5,156C -0.379317,148.517 -0.379317,141.184 7.5,134C 13.2965,133.209 18.9632,133.709 24.5,135.5C 26.1016,137.074 28.1016,137.741 30.5,137.5C 34.6549,138.954 38.9882,139.954 43.5,140.5C 45.1016,142.074 47.1016,142.741 49.5,142.5C 49.8333,142.5 50.1667,142.5 50.5,142.5C 52.1016,144.074 54.1016,144.741 56.5,144.5C 57.9187,145.451 59.5853,145.784 61.5,145.5C 63.1016,147.074 65.1016,147.741 67.5,147.5C 67.8333,147.5 68.1667,147.5 68.5,147.5C 70.5145,148.924 72.8478,149.59 75.5,149.5C 76.7082,150.782 78.0416,150.782 79.5,149.5C 80.6296,146.528 82.6296,144.528 85.5,143.5C 93.2654,141.253 100.599,138.253 107.5,134.5C 112.631,132.11 117.964,129.943 123.5,128C 132.4,125.11 141.4,124.777 150.5,127C 159.61,130.619 168.61,134.452 177.5,138.5 Z"/></g>
<g><path style="opacity:1" fill="#f9f9f9" d="M 163.5,140.5 C 163.973,141.906 164.973,142.573 166.5,142.5C 169.208,144.353 172.208,145.353 175.5,145.5C 175.66,147.199 175.494,148.866 175,150.5C 171.023,158.287 167.189,166.121 163.5,174C 156.613,172.676 149.613,172.343 142.5,173C 130.559,176.393 118.892,180.226 107.5,184.5C 104.848,184.41 102.515,185.076 100.5,186.5C 99.5,186.5 98.5,186.5 97.5,186.5C 93.4659,186.495 89.4659,186.162 85.5,185.5C 61.7604,174.131 38.0937,162.464 14.5,150.5C 14.0269,149.094 13.0269,148.427 11.5,148.5C 9.25488,146.583 8.92155,144.25 10.5,141.5C 11.3333,141.167 12.1667,140.833 13,140.5C 15.2261,141.033 17.3927,141.7 19.5,142.5C 21.5145,143.924 23.8478,144.59 26.5,144.5C 29.5,145.167 32.5,145.833 35.5,146.5C 38.5046,148.277 41.8379,149.277 45.5,149.5C 47.0418,150.301 48.7085,150.634 50.5,150.5C 52.1016,152.074 54.1016,152.741 56.5,152.5C 63.9917,155.124 71.6584,157.291 79.5,159C 81.8333,160.667 84.1667,162.333 86.5,164C 99.1728,164.267 111.839,163.933 124.5,163C 126.648,160.925 126.982,158.592 125.5,156C 115.617,155.399 105.784,155.899 96,157.5C 93.6392,157.496 91.4726,157.163 89.5,156.5C 87.9829,154.064 88.3162,151.898 90.5,150C 95.4641,148.629 100.131,146.796 104.5,144.5C 110.12,143.013 115.453,141.013 120.5,138.5C 126.033,134.906 132.2,133.239 139,133.5C 143.222,133.559 147.389,134.059 151.5,135C 155.241,137.433 159.241,139.266 163.5,140.5 Z"/></g>
<g><path style="opacity:1" fill="#858585" d="M 24.5,135.5 C 26.8984,135.259 28.8984,135.926 30.5,137.5C 28.1016,137.741 26.1016,137.074 24.5,135.5 Z"/></g>
<g><path style="opacity:1" fill="#949494" d="M 177.5,138.5 C 181.371,138.185 185.038,138.518 188.5,139.5C 185.934,139.344 183.434,139.678 181,140.5C 179.541,140.192 178.374,139.525 177.5,138.5 Z"/></g>
<g><path style="opacity:1" fill="#5b5b5b" d="M 107.5,134.5 C 100.599,138.253 93.2654,141.253 85.5,143.5C 92.2798,139.453 99.6132,136.453 107.5,134.5 Z"/></g>
<g><path style="opacity:1" fill="#9c9c9c" d="M 120.5,138.5 C 115.453,141.013 110.12,143.013 104.5,144.5C 109.21,141.148 114.543,139.148 120.5,138.5 Z"/></g>
<g><path style="opacity:1" fill="#989898" d="M 43.5,140.5 C 45.8984,140.259 47.8984,140.926 49.5,142.5C 47.1016,142.741 45.1016,142.074 43.5,140.5 Z"/></g>
<g><path style="opacity:1" fill="#868686" d="M 163.5,140.5 C 165.027,140.427 166.027,141.094 166.5,142.5C 164.973,142.573 163.973,141.906 163.5,140.5 Z"/></g>
<g><path style="opacity:1" fill="#7e7e7e" d="M 19.5,142.5 C 22.1522,142.41 24.4855,143.076 26.5,144.5C 23.8478,144.59 21.5145,143.924 19.5,142.5 Z"/></g>
<g><path style="opacity:1" fill="#898989" d="M 50.5,142.5 C 52.8984,142.259 54.8984,142.926 56.5,144.5C 54.1016,144.741 52.1016,144.074 50.5,142.5 Z"/></g>
<g><path style="opacity:1" fill="#8d8d8d" d="M 61.5,145.5 C 63.8984,145.259 65.8984,145.926 67.5,147.5C 65.1016,147.741 63.1016,147.074 61.5,145.5 Z"/></g>
<g><path style="opacity:1" fill="#535353" d="M 35.5,146.5 C 39.1621,146.723 42.4954,147.723 45.5,149.5C 41.8379,149.277 38.5046,148.277 35.5,146.5 Z"/></g>
<g><path style="opacity:1" fill="#9a9a9a" d="M 68.5,147.5 C 71.1522,147.41 73.4855,148.076 75.5,149.5C 72.8478,149.59 70.5145,148.924 68.5,147.5 Z"/></g>
<g><path style="opacity:1" fill="#9b9b9b" d="M 104.5,144.5 C 100.131,146.796 95.4641,148.629 90.5,150C 88.3162,151.898 87.9829,154.064 89.5,156.5C 85.6105,154.373 85.6105,151.873 89.5,149C 94.3467,146.905 99.3467,145.405 104.5,144.5 Z"/></g>
<g><path style="opacity:1" fill="#858585" d="M 11.5,148.5 C 13.0269,148.427 14.0269,149.094 14.5,150.5C 12.9731,150.573 11.9731,149.906 11.5,148.5 Z"/></g>
<g><path style="opacity:1" fill="#585858" d="M 50.5,150.5 C 52.8984,150.259 54.8984,150.926 56.5,152.5C 54.1016,152.741 52.1016,152.074 50.5,150.5 Z"/></g>
<g><path style="opacity:1" fill="#b9b9b9" d="M 191.5,149.5 C 190.305,149.322 189.138,148.989 188,148.5C 186.72,148.613 185.887,149.28 185.5,150.5C 187.291,151.17 188.958,151.837 190.5,152.5C 189.167,152.5 187.833,152.5 186.5,152.5C 186.5,153.833 186.5,155.167 186.5,156.5C 185.533,155.194 184.199,154.527 182.5,154.5C 183.455,152.254 184.122,149.921 184.5,147.5C 186.527,147.338 188.527,147.505 190.5,148C 191.056,148.383 191.389,148.883 191.5,149.5 Z"/></g>
<g><path style="opacity:1" fill="#272727" d="M 190.5,152.5 C 192.074,156.927 190.74,158.26 186.5,156.5C 186.5,155.167 186.5,153.833 186.5,152.5C 187.833,152.5 189.167,152.5 190.5,152.5 Z"/></g>
<g><path style="opacity:1" fill="#f0f0f0" d="M 191.5,149.5 C 193.305,150.237 194.971,151.237 196.5,152.5C 193.645,158.966 190.645,165.299 187.5,171.5C 186.094,171.973 185.427,172.973 185.5,174.5C 183.576,178.017 181.909,181.684 180.5,185.5C 178.958,186.301 177.292,186.634 175.5,186.5C 172.697,185.933 170.364,184.6 168.5,182.5C 172.994,172.975 177.661,163.642 182.5,154.5C 184.199,154.527 185.533,155.194 186.5,156.5C 190.74,158.26 192.074,156.927 190.5,152.5C 188.958,151.837 187.291,151.17 185.5,150.5C 185.887,149.28 186.72,148.613 188,148.5C 189.138,148.989 190.305,149.322 191.5,149.5 Z"/></g>
<g><path style="opacity:1" fill="#787878" d="M 187.5,171.5 C 187.573,173.027 186.906,174.027 185.5,174.5C 185.427,172.973 186.094,171.973 187.5,171.5 Z"/></g>
<g><path style="opacity:1" fill="#adadad" d="M 160.5,185.5 C 159.596,184.791 159.263,183.791 159.5,182.5C 153.167,181.167 146.833,181.167 140.5,182.5C 140.918,181.778 141.584,181.278 142.5,181C 147.833,180.333 153.167,180.333 158.5,181C 160.107,182.049 160.773,183.549 160.5,185.5 Z"/></g>
<g><path style="opacity:1" fill="#545454" d="M 107.5,184.5 C 105.485,185.924 103.152,186.59 100.5,186.5C 102.515,185.076 104.848,184.41 107.5,184.5 Z"/></g>
<g><path style="opacity:1" fill="#9c9c9c" d="M 136.5,183.5 C 132.767,185.411 128.767,186.744 124.5,187.5C 128.085,185.194 132.085,183.861 136.5,183.5 Z"/></g>
<g><path style="opacity:1" fill="#565656" d="M 85.5,185.5 C 89.4659,186.162 93.4659,186.495 97.5,186.5C 96.2067,187.158 94.7067,187.492 93,187.5C 90.1789,187.592 87.6789,186.926 85.5,185.5 Z"/></g>
<g><path style="opacity:1" fill="#8a8a8a" d="M 180.5,185.5 C 179.539,189.143 177.872,189.476 175.5,186.5C 177.292,186.634 178.958,186.301 180.5,185.5 Z"/></g>
<g><path style="opacity:1" fill="#a3a3a3" d="M 123.5,187.5 C 118.744,189.789 113.744,191.456 108.5,192.5C 113.081,189.968 118.081,188.302 123.5,187.5 Z"/></g>
<g><path style="opacity:1" fill="#606060" d="M 79.5,191.5 C 81.8984,191.259 83.8984,191.926 85.5,193.5C 83.1016,193.741 81.1016,193.074 79.5,191.5 Z"/></g>
<g><path style="opacity:1" fill="#888888" d="M 172.5,193.5 C 174.027,193.427 175.027,194.094 175.5,195.5C 173.973,195.573 172.973,194.906 172.5,193.5 Z"/></g>
<g><path style="opacity:1" fill="#919191" d="M 184.5,194.5 C 183.508,196.026 182.008,196.693 180,196.5C 178.615,196.486 177.449,196.152 176.5,195.5C 179.237,195.599 181.904,195.265 184.5,194.5 Z"/></g>
</svg>
