<?xml version="1.0" encoding="UTF-8"?>
<!DOCTYPE svg PUBLIC "-//W3C//DTD SVG 1.1//EN" "http://www.w3.org/Graphics/SVG/1.1/DTD/svg11.dtd">
<svg xmlns="http://www.w3.org/2000/svg" version="1.1" width="200px" height="200px" style="shape-rendering:geometricPrecision; text-rendering:geometricPrecision; image-rendering:optimizeQuality; fill-rule:evenodd; clip-rule:evenodd" xmlns:xlink="http://www.w3.org/1999/xlink">
<g><path style="opacity:1" fill="#fcfcfc" d="M -0.5,-0.5 C 24.8333,-0.5 50.1667,-0.5 75.5,-0.5C 74.8783,0.626561 74.045,1.62656 73,2.5C 72.3333,12.8333 72.3333,23.1667 73,33.5C 76.3333,37.5 79.6667,37.5 83,33.5C 83.6667,23.1667 83.6667,12.8333 83,2.5C 81.955,1.62656 81.1217,0.626561 80.5,-0.5C 120.167,-0.5 159.833,-0.5 199.5,-0.5C 199.5,66.1667 199.5,132.833 199.5,199.5C 173.5,199.5 147.5,199.5 121.5,199.5C 124.234,198.295 126.901,196.795 129.5,195C 146.667,177.833 163.833,160.667 181,143.5C 188.008,130.555 185.008,120.888 172,114.5C 172.797,103.179 167.963,95.8459 157.5,92.5C 159.03,82.8966 155.697,75.5633 147.5,70.5C 153.819,63.6811 160.319,57.0144 167,50.5C 172.625,43.1017 172.959,35.435 168,27.5C 160.62,20.0603 152.12,18.5603 142.5,23C 122,43.5 101.5,64 81,84.5C 79.2151,78.5998 77.5485,72.5998 76,66.5C 68.6797,52.5415 57.513,48.0415 42.5,53C 40.3333,54.5 38.1667,56 36,57.5C 34.6845,83.413 34.0178,109.413 34,135.5C 28,141.5 22,147.5 16,153.5C 15.3333,155.5 15.3333,157.5 16,159.5C 29.3686,172.701 42.5353,186.035 55.5,199.5C 36.8333,199.5 18.1667,199.5 -0.5,199.5C -0.5,132.833 -0.5,66.1667 -0.5,-0.5 Z"/></g>
<g><path style="opacity:1" fill="#020202" d="M 75.5,-0.5 C 77.1667,-0.5 78.8333,-0.5 80.5,-0.5C 81.1217,0.626561 81.955,1.62656 83,2.5C 83.6667,12.8333 83.6667,23.1667 83,33.5C 79.6667,37.5 76.3333,37.5 73,33.5C 72.3333,23.1667 72.3333,12.8333 73,2.5C 74.045,1.62656 74.8783,0.626561 75.5,-0.5 Z"/></g>
<g><path style="opacity:1" fill="#0d0d0d" d="M 43.5,18.5 C 45.9892,18.2978 48.3225,18.7978 50.5,20C 53,22.5 55.5,25 58,27.5C 59.281,33.8013 56.781,36.6346 50.5,36C 45.6666,33.1737 42.3333,29.1737 40.5,24C 40.8627,21.8077 41.8627,19.9744 43.5,18.5 Z"/></g>
<g><path style="opacity:1" fill="#0e0e0e" d="M 106.5,18.5 C 112.873,17.7289 115.706,20.3956 115,26.5C 112.872,29.6301 110.372,32.4634 107.5,35C 100.243,37.7463 97.0768,35.2463 98,27.5C 101.038,24.6306 103.871,21.6306 106.5,18.5 Z"/></g>
<g><path style="opacity:1" fill="#050505" d="M 121.5,199.5 C 99.5,199.5 77.5,199.5 55.5,199.5C 42.5353,186.035 29.3686,172.701 16,159.5C 15.3333,157.5 15.3333,155.5 16,153.5C 22,147.5 28,141.5 34,135.5C 34.0178,109.413 34.6845,83.413 36,57.5C 38.1667,56 40.3333,54.5 42.5,53C 57.513,48.0415 68.6797,52.5415 76,66.5C 77.5485,72.5998 79.2151,78.5998 81,84.5C 101.5,64 122,43.5 142.5,23C 152.12,18.5603 160.62,20.0603 168,27.5C 172.959,35.435 172.625,43.1017 167,50.5C 160.319,57.0144 153.819,63.6811 147.5,70.5C 155.697,75.5633 159.03,82.8966 157.5,92.5C 167.963,95.8459 172.797,103.179 172,114.5C 185.008,120.888 188.008,130.555 181,143.5C 163.833,160.667 146.667,177.833 129.5,195C 126.901,196.795 124.234,198.295 121.5,199.5 Z"/></g>
<g><path style="opacity:1" fill="#fbfbfb" d="M 150.5,31.5 C 157.141,31.6389 159.974,34.9722 159,41.5C 142,58.5 125,75.5 108,92.5C 101.137,103.007 102.303,112.507 111.5,121C 114.536,123.006 117.869,123.84 121.5,123.5C 121.377,130.088 124.044,135.254 129.5,139C 132.536,141.006 135.869,141.84 139.5,141.5C 139.366,149.061 142.7,154.561 149.5,158C 139.471,168.364 129.137,178.364 118.5,188C 99.1667,188.667 79.8333,188.667 60.5,188C 50.1667,177.667 39.8333,167.333 29.5,157C 35.033,151.802 40.1996,146.302 45,140.5C 45.1668,115.16 45.6668,89.8268 46.5,64.5C 54.4361,60.8786 60.6028,62.8786 65,70.5C 67.4877,80.1177 69.821,89.7844 72,99.5C 82.4219,107.344 86.4219,117.678 84,130.5C 81.6706,135.83 78.8372,140.83 75.5,145.5C 78.3536,152.768 82.5202,153.434 88,147.5C 96.6865,135.909 98.6865,123.243 94,109.5C 91.2545,104.651 88.5879,99.9846 86,95.5C 107.395,73.9379 128.895,52.6045 150.5,31.5 Z"/></g>
<g><path style="opacity:1" fill="#f6f6f6" d="M 136.5,80.5 C 144.558,80.3729 147.391,84.0396 145,91.5C 138.5,98 132,104.5 125.5,111C 119.761,113.464 116.094,111.631 114.5,105.5C 114.719,104.062 115.219,102.729 116,101.5C 123.036,94.6315 129.869,87.6315 136.5,80.5 Z"/></g>
<g><path style="opacity:1" fill="#f7f7f7" d="M 149.5,103.5 C 158.243,102.734 161.076,106.401 158,114.5C 153.5,119 149,123.5 144.5,128C 136.59,131.31 132.756,128.81 133,120.5C 138.703,114.965 144.203,109.298 149.5,103.5 Z"/></g>
<g><path style="opacity:1" fill="#f7f7f7" d="M 163.5,125.5 C 170.88,125.043 173.713,128.376 172,135.5C 168.14,139.36 164.306,143.194 160.5,147C 153.22,148.719 150.053,145.885 151,138.5C 154.697,133.638 158.864,129.304 163.5,125.5 Z"/></g>
</svg>
